<svg width="16" height="16" viewBox="0 0 16 16" fill="none" xmlns="http://www.w3.org/2000/svg">
<path d="M14.375 6.6425H12.2075C10.43 6.6425 8.9825 5.195 8.9825 3.4175V1.25C8.9825 0.8375 8.645 0.5 8.2325 0.5H5.0525C2.7425 0.5 0.875 2 0.875 4.6775V11.3225C0.875 14 2.7425 15.5 5.0525 15.5H10.9475C13.2575 15.5 15.125 14 15.125 11.3225V7.3925C15.125 6.98 14.7875 6.6425 14.375 6.6425ZM7.625 12.3125H4.625C4.3175 12.3125 4.0625 12.0575 4.0625 11.75C4.0625 11.4425 4.3175 11.1875 4.625 11.1875H7.625C7.9325 11.1875 8.1875 11.4425 8.1875 11.75C8.1875 12.0575 7.9325 12.3125 7.625 12.3125ZM9.125 9.3125H4.625C4.3175 9.3125 4.0625 9.0575 4.0625 8.75C4.0625 8.4425 4.3175 8.1875 4.625 8.1875H9.125C9.4325 8.1875 9.6875 8.4425 9.6875 8.75C9.6875 9.0575 9.4325 9.3125 9.125 9.3125Z" fill="#B7B7B7"/>
</svg>
